# xmcd CD database file
#
# Track frame offsets:
#	150
#	11913
#	28514
#	48961
#	83306
#
# Disc length: 1621 seconds
#
# Revision: 0
# Processed by: cddbd v1.5.1PL2 Copyright (c) Steve Scherf et al.
# Submitted via: CDex 1.51
#
DISCID=2b065305
DTITLE=Yesterday's Ring - Back From El Rancho
DYEAR=2006
DGENRE=Country
TTITLE0=The Boat That Never Sinks
TTITLE1=San Cristobal De Las Casas
TTITLE2=The Red Red River Road At Night
TTITLE3=Xmas In Greece
TTITLE4=Video
EXTD=YEAR: 2006
EXTT0=
EXTT1=
EXTT2=
EXTT3=
EXTT4=
PLAYORDER=
